<?xml version="1.0" encoding="utf-8"?>
<!-- Generator: Adobe Illustrator 18.0.0, SVG Export Plug-In . SVG Version: 6.00 Build 0)  -->
<!DOCTYPE svg PUBLIC "-//W3C//DTD SVG 1.1//EN" "http://www.w3.org/Graphics/SVG/1.1/DTD/svg11.dtd" [
	<!ENTITY st0 "fill:#0B2956;">
]>
<svg version="1.1" id="Layer_4" xmlns="http://www.w3.org/2000/svg" xmlns:xlink="http://www.w3.org/1999/xlink" x="0px" y="0px"
	 width="484.35px" height="94.402px" viewBox="0 0 484.35 94.402" style="enable-background:new 0 0 484.35 94.402;"
	 xml:space="preserve">
<path style="&st0;" d="M408.107,7.252c-3.541-2.581-6.585-4.799-9.747-7.103c-0.351-0.256-0.851-0.173-1.098,0.185
	c-11.989,17.397-19.589,36.844-25.948,56.742c-2.643,8.272-4.022,17.032-5.143,25.678c-0.709,5.466,2.626,9.348,7.53,11.569
	c4.216-31.789,14.764-60.654,34.563-85.976C408.53,8.005,408.457,7.507,408.107,7.252z"/>
<path style="&st0;" d="M383.542,7.252c-3.541-2.581-6.585-4.799-9.747-7.103c-0.351-0.256-0.851-0.173-1.098,0.185
	c-11.989,17.397-19.589,36.844-25.948,56.742c-2.644,8.272-4.022,17.032-5.143,25.678c-0.709,5.466,2.626,9.348,7.53,11.569
	c4.216-31.789,14.764-60.654,34.563-85.976C383.966,8.005,383.892,7.507,383.542,7.252z"/>
<path style="&st0;" d="M330.47,10.029c-0.394-0.121-0.565,0.1-0.461,0.499c0.23,0.883,1.332-0.653-3.229,4.405
	c-4.425,4.908-9.122,9.573-13.709,14.334s-9.123,9.564-13.403,14.587c-1.935,2.271-3.578,4.71-5.579,6.664
	c0,0-17.318,0.436-21.54,0.822c-0.343,0.031-0.576,0.36-0.491,0.694l1.266,3.497c0.201,0.556,0.715,0.937,1.305,0.97l15.61,0.859
	c-2.831,4.241-6.04,8.718-8.484,13.07c-2.315,4.122-5.088,8.571-6.761,12.927c-1.379,3.59-1.598,5.967-0.465,7.614
	c1.094,1.59,3.448,2.5,7.235,3.163c0.227,0.04,0.457-0.104,0.511-0.328c2.674-10.889,16.031-34.917,16.031-34.917
	c0.844-1.356,0.729-1.261,2.781-1.261l19.155,0.667c0,0-3.157,18.601-3.711,24.86c-0.414,4.676,0.582,8.076,1.963,9.458
	c1.79,1.79,4.945,1.724,9.992,1.788c0.297,0.004,0.544-0.241,0.543-0.538c-0.064-13.052,2.301-26.282,4.357-39.044
	c2.084-12.938,11.743-37.916,11.743-37.916C338.653,12.542,335.638,11.609,330.47,10.029z M322.456,48.385
	c-0.584,1.906-1.095,1.963-3.249,1.963c-4.995,0-9.995,0.092-16.155,0.092c7.077-10.237,13.442-19.679,25.063-26.768
	C326.048,32.907,324.333,40.592,322.456,48.385z"/>
<path style="&st0;" d="M95.331,21.113c0.894,0.257,1.115-0.606,1.115-2.498c0-4.249-2.716-7.35-10.075-7.35
	c-16.664,0-72.913,3.089-84.356,3.005c-0.467-0.003-1.579-0.13-1.828-0.378c-0.068-0.068-0.185-0.031-0.187,0.065
	c-0.022,1.019,0.222,2.593,0.574,4.08c0.465,1.966,2.218,3.354,4.238,3.335l20.678-0.174c0,0-14.96,44.141-16.95,59.453
	c-1.243,9.567-2.271,13.385,6.621,13.385l0.416-2.269c3.086-18.317,21.607-70.702,21.607-70.702S85.018,18.143,95.331,21.113z"/>
<path style="&st0;" d="M483.132,51.909c2.085-3.698,1.669-6.781-2.621-7.402c-2.791-0.404-6.315,0.141-8.651,1.62
	c-4.263,2.698-8.145,6.149-11.717,9.751c-5.247,5.291-12.538,12.22-17.549,17.746c2.364-6.778,11.267-22.936,14.795-29.025
	c0.016-0.027,0.026-0.051,0.034-0.082c0.478-1.856-7.35-7.37-7.35-7.37c-0.97-0.121-1.923,0.357-2.453,1.178
	c-8.92,13.802-17.147,30.227-17.147,44.774c0,11.224,3.535,10.774,3.535,10.774c10.705-12.635,18.028-25.581,30.837-34.04
	c-1.303,6.859-2.818,16.592-3.494,22.732c-0.483,4.388,1.343,7.978,6.353,9.03c4.731,0.994,8.234-0.636,11.551-4.102
	c0.295-0.309,0.101-0.824-0.322-0.88c-7.849-1.028-8.84-6.108-6.029-13.965C475.486,65.432,479.347,58.622,483.132,51.909z"/>
<path style="&st0;" d="M200.523,45.03c-1.678,0-1.399-1.944-2.235-2.78c-3.841-3.841-6.687-4.524-11.115-2.466
	c-12.921,6.007-23.05,25.68-20.281,39.588c1.789,8.986,9.328,13.064,17.95,9.709c13.697-5.329,22.449-18.042,22.545-34.482
	C207.475,51.15,208.03,45.03,200.523,45.03z M179.215,85.847c-0.236,0.06-0.493-0.041-0.621-0.249
	c-6.508-10.597,4.916-32.597,19.268-37.103c0.268-0.084,0.565,0.05,0.681,0.306C204.392,61.785,193.793,82.138,179.215,85.847z"/>
<path style="&st0;" d="M103.99,40.9c-13.269,5.106-24.698,25.081-22.306,39.056c1.667,9.742,11.855,15.154,20.299,10.171
	c4.834-2.853,8.89-7.059,13.146-10.825c0.478-0.424,0.716-1.119,1.007-2.085c0.233-0.773-0.658-1.397-1.307-0.917
	c-5.044,3.733-9.161,7.159-13.789,9.628c-5.773,3.08-9.07-1.886-9.07-6.975c0-2.024,0.101-3.498,0.101-3.498
	c9.63-4.572,23.269-10.681,25.95-22.212c0.873-3.753,1.317-7.936-1.473-10.725C112.856,38.824,108.493,39.167,103.99,40.9z
	 M94.299,70.464c-0.21,0.12-0.464-0.084-0.392-0.315c2.819-9.129,7.208-16.889,17.459-21.009c0.191-0.077,0.406,0.09,0.379,0.294
	C110.222,60.771,102.432,65.816,94.299,70.464z"/>
<path style="&st0;" d="M411.046,40.9c-13.269,5.106-24.698,25.081-22.306,39.056c1.667,9.742,11.855,15.154,20.299,10.171
	c4.834-2.853,8.89-7.059,13.146-10.825c0.479-0.424,0.716-1.119,1.007-2.085c0.233-0.773-0.658-1.397-1.307-0.917
	c-5.044,3.733-9.161,7.159-13.789,9.628c-5.773,3.08-9.07-1.886-9.07-6.975c0-2.024,0.101-3.498,0.101-3.498
	c9.63-4.572,23.269-10.681,25.95-22.212c0.873-3.753,1.317-7.936-1.473-10.725C419.912,38.824,415.549,39.167,411.046,40.9z
	 M401.355,70.464c-0.211,0.12-0.464-0.084-0.392-0.315c2.819-9.129,7.208-16.889,17.459-21.009c0.191-0.077,0.406,0.09,0.379,0.294
	C417.278,60.771,409.488,65.816,401.355,70.464z"/>
<path style="&st0;" d="M164.581,38.594c-1.61,0-3.068,1.104-3.745,2.439c-0.677,1.335-0.92,2.667-1.423,4.003
	c-4.983,13.224-13.267,22.704-23.838,33.53c-0.202,0.207-0.56,0.045-0.54-0.244c0.882-12.901,2.924-22.466,3.759-34.717
	c0.032-0.473-0.198-0.946-0.607-1.186c-6.588-3.872-11.165,0.336-12.154,10.459c-0.723,7.403-2.272,20.345-2.314,30.473
	c-0.018,4.312,0.382,5.429,2.026,7.073c1.285,1.285,4.616,1.105,6.612-0.892c11.62-11.62,23.891-21.609,31.712-35.98
	c1.819-3.342,3.634-7.126,3.634-10.945C167.704,40.158,166.177,38.594,164.581,38.594z"/>
<path style="&st0;" d="M250.811,41.175c-1.584-0.661-4.091,0.681-5.547,1.618c-0.694,0.447-1.301,0.998-1.823,1.637
	c-3.984,4.871-8.887,9.643-13.612,14.032c-0.084,0.078-0.204-0.004-0.158-0.108c0,0,3.586-10.429,6.918-15.607
	c0.125-0.195,0.077-0.475-0.098-0.626c-7.463-6.435-10.558-5.997-13.806,2.752c-4.187,11.279-7.91,22.746-11.379,34.269
	c-2.231,7.412-1.405,11.075,7.276,11.075c2.787-13.828,7.699-26.512,21.02-33.921c1.625,2.139,2.761,4.16,4.398,5.617
	c0.868,0.772,2.796,1.416,3.823,1.72c0.4,0.118,0.826-0.043,1.053-0.392c0,0,2.393-3.094,2.804-4.312
	c0.075-0.222,0.047-0.627,0.02-0.939c-0.458-5.221-0.58-9.84,0.194-15.134C251.889,42.134,251.476,41.452,250.811,41.175z"/>
<path style="&st0;" d="M77.631,41.175c-1.584-0.661-4.091,0.681-5.547,1.618c-0.694,0.447-1.301,0.998-1.823,1.637
	c-3.984,4.871-8.887,9.643-13.612,14.032c-0.084,0.078-0.204-0.004-0.158-0.108c0,0,3.586-10.429,6.918-15.607
	c0.125-0.195,0.077-0.475-0.098-0.626c-7.463-6.435-10.558-5.997-13.806,2.752c-4.187,11.279-7.91,22.746-11.379,34.269
	c-2.231,7.412-1.354,11.075,7.276,11.075c2.787-13.828,7.699-26.512,21.02-33.921c1.625,2.139,2.761,4.16,4.398,5.617
	c0.868,0.772,2.795,1.416,3.823,1.72c0.4,0.118,0.826-0.043,1.053-0.392c0,0,2.393-3.094,2.804-4.312
	c0.075-0.222,0.047-0.627,0.02-0.939c-0.458-5.221-0.58-9.84,0.194-15.134C78.71,42.134,78.297,41.452,77.631,41.175z"/>
</svg>
