<svg width="1439" height="778" xmlns="http://www.w3.org/2000/svg"><g><path d="M-76,-87L-133,315L-94,110Z" fill="#db483e" stroke="#db483e"/><path d="M-76,-87L-94,110L46,134Z" fill="#dd2130" stroke="#dd2130"/><path d="M-76,-87L46,134L117,-24Z" fill="#e00e2b" stroke="#e00e2b"/><path d="M-76,-87L117,-24L213,-129Z" fill="#e0191f" stroke="#e0191f"/><path d="M117,-24L46,134L88,167Z" fill="#e85354" stroke="#e85354"/><path d="M117,-24L88,167L246,100Z" fill="#ec5f5b" stroke="#ec5f5b"/><path d="M117,-24L246,100L213,-129Z" fill="#eb373d" stroke="#eb373d"/><path d="M213,-129L246,100L415,21Z" fill="#f35354" stroke="#f35354"/><path d="M213,-129L415,21L423,-133Z" fill="#f05c4e" stroke="#f05c4e"/><path d="M423,-133L415,21L575,-108Z" fill="#f06d66" stroke="#f06d66"/><path d="M423,-133L575,-108L647,-120Z" fill="#ef7876" stroke="#ef7876"/><path d="M423,-133L647,-120L1031,-122Z" fill="#d97176" stroke="#d97176"/><path d="M575,-108L415,21L543,98Z" fill="#f47583" stroke="#f47583"/><path d="M575,-108L543,98L664,16Z" fill="#f17c8f" stroke="#f17c8f"/><path d="M575,-108L664,16L647,-120Z" fill="#e87779" stroke="#e87779"/><path d="M647,-120L664,16L851,-83Z" fill="#d86f75" stroke="#d86f75"/><path d="M647,-120L851,-83L1031,-122Z" fill="#c06570" stroke="#c06570"/><path d="M851,-83L664,16L769,75Z" fill="#d46d88" stroke="#d46d88"/><path d="M851,-83L769,75L1022,126Z" fill="#c07990" stroke="#c07990"/><path d="M851,-83L1022,126L1031,-122Z" fill="#a75370" stroke="#a75370"/><path d="M1031,-122L1022,126L1069,-110Z" fill="#954967" stroke="#954967"/><path d="M1031,-122L1069,-110L1391,-56Z" fill="#743757" stroke="#743757"/><path d="M1031,-122L1391,-56L1574,-32Z" fill="#761e4a" stroke="#761e4a"/><path d="M1069,-110L1022,126L1158,31Z" fill="#8c4d77" stroke="#8c4d77"/><path d="M1069,-110L1158,31L1219,-30Z" fill="#7a395e" stroke="#7a395e"/><path d="M1069,-110L1219,-30L1391,-56Z" fill="#762e52" stroke="#762e52"/><path d="M1219,-30L1158,31L1267,113Z" fill="#7a4775" stroke="#7a4775"/><path d="M1219,-30L1267,113L1390,23Z" fill="#7a3b6d" stroke="#7a3b6d"/><path d="M1219,-30L1390,23L1391,-56Z" fill="#781e55" stroke="#781e55"/><path d="M1391,-56L1390,23L1542,17Z" fill="#790e52" stroke="#790e52"/><path d="M1391,-56L1542,17L1574,-32Z" fill="#780646" stroke="#780646"/><path d="M1574,-32L1542,17L1627,255Z" fill="#7c3367" stroke="#7c3367"/><path d="M-94,110L-133,315L-45,188Z" fill="#de6c5e" stroke="#de6c5e"/><path d="M-94,110L-45,188L46,134Z" fill="#e25b54" stroke="#e25b54"/><path d="M46,134L-45,188L88,167Z" fill="#e76d65" stroke="#e76d65"/><path d="M246,100L88,167L242,179Z" fill="#f2957c" stroke="#f2957c"/><path d="M246,100L242,179L481,175Z" fill="#fab894" stroke="#fab894"/><path d="M246,100L481,175L415,21Z" fill="#f89e8c" stroke="#f89e8c"/><path d="M415,21L481,175L543,98Z" fill="#f8aca0" stroke="#f8aca0"/><path d="M543,98L481,175L664,271Z" fill="#fbe1cf" stroke="#fbe1cf"/><path d="M543,98L664,271L769,75Z" fill="#ecd2c3" stroke="#ecd2c3"/><path d="M543,98L769,75L664,16Z" fill="#e99da3" stroke="#e99da3"/><path d="M769,75L664,271L777,278Z" fill="#dfdad3" stroke="#dfdad3"/><path d="M769,75L777,278L947,275Z" fill="#ced2d0" stroke="#ced2d0"/><path d="M769,75L947,275L1022,126Z" fill="#bdbfba" stroke="#bdbfba"/><path d="M1022,126L947,275L1029,337Z" fill="#a7c2cf" stroke="#a7c2cf"/><path d="M1022,126L1029,337L1156,225Z" fill="#96b5c4" stroke="#96b5c4"/><path d="M1022,126L1156,225L1158,31Z" fill="#8a8f9e" stroke="#8a8f9e"/><path d="M1158,31L1156,225L1267,113Z" fill="#7e8196" stroke="#7e8196"/><path d="M1267,113L1156,225L1221,239Z" fill="#8099ad" stroke="#8099ad"/><path d="M1267,113L1221,239L1434,263Z" fill="#808da9" stroke="#808da9"/><path d="M1267,113L1434,263L1390,23Z" fill="#7f6e8c" stroke="#7f6e8c"/><path d="M1390,23L1434,263L1542,17Z" fill="#7d4c79" stroke="#7d4c79"/><path d="M1542,17L1434,263L1627,255Z" fill="#80678f" stroke="#80678f"/><path d="M-45,188L-133,315L98,340Z" fill="#e37a82" stroke="#e37a82"/><path d="M-45,188L98,340L88,167Z" fill="#e87e7e" stroke="#e87e7e"/><path d="M88,167L98,340L242,179Z" fill="#ef998e" stroke="#ef998e"/><path d="M242,179L98,340L251,348Z" fill="#f3b4aa" stroke="#f3b4aa"/><path d="M242,179L251,348L352,284Z" fill="#f9c9b3" stroke="#f9c9b3"/><path d="M242,179L352,284L481,175Z" fill="#facab0" stroke="#facab0"/><path d="M352,284L251,348L330,383Z" fill="#f3d4c5" stroke="#f3d4c5"/><path d="M352,284L330,383L585,370Z" fill="#f1e3dc" stroke="#f1e3dc"/><path d="M352,284L585,370L481,175Z" fill="#fbe6db" stroke="#fbe6db"/><path d="M481,175L585,370L664,271Z" fill="#fbf4ef" stroke="#fbf4ef"/><path d="M664,271L585,370L669,367Z" fill="#eaf4f8" stroke="#eaf4f8"/><path d="M664,271L669,367L777,278Z" fill="#e5eff4" stroke="#e5eff4"/><path d="M777,278L669,367L791,401Z" fill="#d3eaf4" stroke="#d3eaf4"/><path d="M777,278L791,401L947,275Z" fill="#cbe4f0" stroke="#cbe4f0"/><path d="M947,275L791,401L861,512Z" fill="#b2dcef" stroke="#b2dcef"/><path d="M947,275L861,512L1029,337Z" fill="#a4d2e8" stroke="#a4d2e8"/><path d="M1156,225L1029,337L1121,360Z" fill="#8ebfdb" stroke="#8ebfdb"/><path d="M1156,225L1121,360L1221,239Z" fill="#80afcb" stroke="#80afcb"/><path d="M1221,239L1121,360L1291,397Z" fill="#7aaed3" stroke="#7aaed3"/><path d="M1221,239L1291,397L1378,336Z" fill="#7ca2cc" stroke="#7ca2cc"/><path d="M1221,239L1378,336L1434,263Z" fill="#8096be" stroke="#8096be"/><path d="M1434,263L1378,336L1583,406Z" fill="#7a89bf" stroke="#7a89bf"/><path d="M1434,263L1583,406L1627,255Z" fill="#807fb7" stroke="#807fb7"/><path d="M1627,255L1583,406L1620,731Z" fill="#5876b3" stroke="#5876b3"/><path d="M1627,255L1620,731L1635,923Z" fill="#0c3f99" stroke="#0c3f99"/><path d="M-133,315L-132,623L-38,559Z" fill="#a66b7b" stroke="#a66b7b"/><path d="M-133,315L-38,559L49,502Z" fill="#bb7689" stroke="#bb7689"/><path d="M-133,315L49,502L98,340Z" fill="#d27c91" stroke="#d27c91"/><path d="M98,340L49,502L279,474Z" fill="#cea0a8" stroke="#cea0a8"/><path d="M98,340L279,474L251,348Z" fill="#e0b7b3" stroke="#e0b7b3"/><path d="M251,348L279,474L330,383Z" fill="#e2ccc1" stroke="#e2ccc1"/><path d="M330,383L279,474L430,558Z" fill="#d0cfcc" stroke="#d0cfcc"/><path d="M330,383L430,558L477,516Z" fill="#c9d4d8" stroke="#c9d4d8"/><path d="M330,383L477,516L585,370Z" fill="#dee4e5" stroke="#dee4e5"/><path d="M585,370L477,516L716,478Z" fill="#d3f1fb" stroke="#d3f1fb"/><path d="M585,370L716,478L669,367Z" fill="#d5eef8" stroke="#d5eef8"/><path d="M669,367L716,478L791,401Z" fill="#c6e8f5" stroke="#c6e8f5"/><path d="M791,401L716,478L861,512Z" fill="#aedff2" stroke="#aedff2"/><path d="M1029,337L861,512L991,556Z" fill="#88cae7" stroke="#88cae7"/><path d="M1029,337L991,556L1078,564Z" fill="#6ebadf" stroke="#6ebadf"/><path d="M1029,337L1078,564L1121,360Z" fill="#78bcde" stroke="#78bcde"/><path d="M1121,360L1078,564L1291,397Z" fill="#5eaed7" stroke="#5eaed7"/><path d="M1291,397L1078,564L1324,514Z" fill="#4c9bce" stroke="#4c9bce"/><path d="M1291,397L1324,514L1401,479Z" fill="#5893c9" stroke="#5893c9"/><path d="M1291,397L1401,479L1378,336Z" fill="#6894c7" stroke="#6894c7"/><path d="M1378,336L1401,479L1583,406Z" fill="#6786c0" stroke="#6786c0"/><path d="M1583,406L1401,479L1522,505Z" fill="#587bbc" stroke="#587bbc"/><path d="M1583,406L1522,505L1620,731Z" fill="#335caa" stroke="#335caa"/><path d="M-38,559L-132,623L34,624Z" fill="#7c4a75" stroke="#7c4a75"/><path d="M-38,559L34,624L49,502Z" fill="#935c85" stroke="#935c85"/><path d="M49,502L34,624L262,665Z" fill="#8b6d90" stroke="#8b6d90"/><path d="M49,502L262,665L279,474Z" fill="#a794a6" stroke="#a794a6"/><path d="M279,474L262,665L368,642Z" fill="#99a1b1" stroke="#99a1b1"/><path d="M279,474L368,642L430,558Z" fill="#a9b5c2" stroke="#a9b5c2"/><path d="M430,558L368,642L516,695Z" fill="#89a9c7" stroke="#89a9c7"/><path d="M430,558L516,695L477,516Z" fill="#9bbbd5" stroke="#9bbbd5"/><path d="M477,516L516,695L727,664Z" fill="#8cbee4" stroke="#8cbee4"/><path d="M477,516L727,664L716,478Z" fill="#a1d0ec" stroke="#a1d0ec"/><path d="M716,478L727,664L786,665Z" fill="#79b7e0" stroke="#79b7e0"/><path d="M716,478L786,665L861,512Z" fill="#88c3e6" stroke="#88c3e6"/><path d="M861,512L786,665L936,666Z" fill="#5fa9d9" stroke="#5fa9d9"/><path d="M861,512L936,666L991,556Z" fill="#5fabd9" stroke="#5fabd9"/><path d="M991,556L936,666L1078,564Z" fill="#459bd1" stroke="#459bd1"/><path d="M1078,564L936,666L1143,675Z" fill="#2787c7" stroke="#2787c7"/><path d="M1078,564L1143,675L1286,657Z" fill="#0d77be" stroke="#0d77be"/><path d="M1078,564L1286,657L1324,514Z" fill="#257fc2" stroke="#257fc2"/><path d="M1324,514L1286,657L1481,648Z" fill="#1962b3" stroke="#1962b3"/><path d="M1324,514L1481,648L1401,479Z" fill="#3370b8" stroke="#3370b8"/><path d="M1401,479L1481,648L1522,505Z" fill="#3567b3" stroke="#3567b3"/><path d="M1522,505L1481,648L1620,731Z" fill="#0f42a1" stroke="#0f42a1"/><path d="M-132,623L-119,799L34,624Z" fill="#603164" stroke="#603164"/><path d="M34,624L-119,799L109,884Z" fill="#661766" stroke="#661766"/><path d="M34,624L109,884L211,775Z" fill="#6e3979" stroke="#6e3979"/><path d="M34,624L211,775L262,665Z" fill="#725f8d" stroke="#725f8d"/><path d="M262,665L211,775L347,774Z" fill="#796d97" stroke="#796d97"/><path d="M262,665L347,774L368,642Z" fill="#7a85a7" stroke="#7a85a7"/><path d="M368,642L347,774L516,695Z" fill="#7b8eb7" stroke="#7b8eb7"/><path d="M516,695L347,774L582,822Z" fill="#7b84bd" stroke="#7b84bd"/><path d="M516,695L582,822L686,783Z" fill="#788fcf" stroke="#788fcf"/><path d="M516,695L686,783L727,664Z" fill="#709cd5" stroke="#709cd5"/><path d="M727,664L686,783L786,665Z" fill="#6098d2" stroke="#6098d2"/><path d="M786,665L686,783L793,879Z" fill="#5c7ec7" stroke="#5c7ec7"/><path d="M786,665L793,879L918,817Z" fill="#4f74c2" stroke="#4f74c2"/><path d="M786,665L918,817L936,666Z" fill="#4586c9" stroke="#4586c9"/><path d="M936,666L918,817L1143,675Z" fill="#2873bf" stroke="#2873bf"/><path d="M1143,675L918,817L1170,818Z" fill="#1558b2" stroke="#1558b2"/><path d="M1143,675L1170,818L1286,657Z" fill="#0057b0" stroke="#0057b0"/><path d="M1286,657L1170,818L1239,857Z" fill="#003fa4" stroke="#003fa4"/><path d="M1286,657L1239,857L1374,814Z" fill="#00359f" stroke="#00359f"/><path d="M1286,657L1374,814L1481,648Z" fill="#0040a3" stroke="#0040a3"/><path d="M1481,648L1374,814L1620,731Z" fill="#002897" stroke="#002897"/><path d="M1620,731L1374,814L1614,837Z" fill="#000d89" stroke="#000d89"/><path d="M1620,731L1614,837L1635,923Z" fill="#00017e" stroke="#00017e"/><path d="M-119,799L-75,929L109,884Z" fill="#630050" stroke="#630050"/><path d="M109,884L-75,929L17,1020Z" fill="#66054e" stroke="#66054e"/><path d="M109,884L17,1020L236,943Z" fill="#6e235f" stroke="#6e235f"/><path d="M109,884L236,943L211,775Z" fill="#733575" stroke="#733575"/><path d="M211,775L236,943L347,774Z" fill="#794d88" stroke="#794d88"/><path d="M347,774L236,943L330,964Z" fill="#7a5587" stroke="#7a5587"/><path d="M347,774L330,964L584,917Z" fill="#7b669f" stroke="#7b669f"/><path d="M347,774L584,917L582,822Z" fill="#7b72b7" stroke="#7b72b7"/><path d="M582,822L584,917L640,948Z" fill="#7779bc" stroke="#7779bc"/><path d="M582,822L640,948L686,783Z" fill="#7177c1" stroke="#7177c1"/><path d="M686,783L640,948L793,879Z" fill="#6570bb" stroke="#6570bb"/><path d="M793,879L640,948L860,990Z" fill="#5b6baf" stroke="#5b6baf"/><path d="M793,879L860,990L918,817Z" fill="#4a63b1" stroke="#4a63b1"/><path d="M918,817L860,990L987,1030Z" fill="#3b5aa5" stroke="#3b5aa5"/><path d="M918,817L987,1030L1144,974Z" fill="#244c9e" stroke="#244c9e"/><path d="M918,817L1144,974L1170,818Z" fill="#1544a3" stroke="#1544a3"/><path d="M1170,818L1144,974L1239,857Z" fill="#003499" stroke="#003499"/><path d="M1239,857L1144,974L1269,995Z" fill="#002f8e" stroke="#002f8e"/><path d="M1239,857L1269,995L1374,814Z" fill="#00248f" stroke="#00248f"/><path d="M1374,814L1269,995L1450,964Z" fill="#001a85" stroke="#001a85"/><path d="M1374,814L1450,964L1614,837Z" fill="#000983" stroke="#000983"/><path d="M1614,837L1450,964L1635,923Z" fill="#000077" stroke="#000077"/><path d="M17,1020L987,1030L330,964Z" fill="#7b6993" stroke="#7b6993"/><path d="M17,1020L330,964L236,943Z" fill="#733867" stroke="#733867"/><path d="M330,964L987,1030L860,990Z" fill="#616fa8" stroke="#616fa8"/><path d="M330,964L860,990L640,948Z" fill="#7679b1" stroke="#7679b1"/><path d="M330,964L640,948L584,917Z" fill="#7b74ab" stroke="#7b74ab"/><path d="M987,1030L1269,995L1144,974Z" fill="#073b8c" stroke="#073b8c"/></g></svg>